<svg id="Слой_1" data-name="Слой 1" xmlns="http://www.w3.org/2000/svg" viewBox="0 0 20.84 24.54">
  <path d="M542.43,567.77h-2a6,6,0,0,1-6-6v-2a6,6,0,0,1,6-6h2a6,6,0,0,1,6,6v2A6,6,0,0,1,542.43,567.77Zm-2-12a4,4,0,0,0-4,4v2a4,4,0,0,0,4,4h2a4,4,0,0,0,4-4v-2a4,4,0,0,0-4-4Z" transform="translate(-531.01 -553.77)"/>
  <path d="M551.41,578.31l-2-.33.36-2.18a3,3,0,0,0-2.37-3.43L542,571.28a2.88,2.88,0,0,0-1.17,0l-5.42,1.09a3,3,0,0,0-2.37,3.43l.36,2.18-2,.33-.36-2.18A5,5,0,0,1,535,570.4l5.41-1.08a5,5,0,0,1,2,0l5.41,1.08a5,5,0,0,1,4,5.73Z" transform="translate(-531.01 -553.77)"/>
</svg>
