<?xml version="1.0" encoding="utf-8"?>
<!-- Generator: Adobe Illustrator 24.1.2, SVG Export Plug-In . SVG Version: 6.00 Build 0)  -->
<svg version="1.1" id="Слой_1" xmlns="http://www.w3.org/2000/svg" xmlns:xlink="http://www.w3.org/1999/xlink" x="0px" y="0px"
	 viewBox="0 0 318 79" style="enable-background:new 0 0 318 79;" xml:space="preserve">
<style type="text/css">
	.st0{fill:#4BB1BC;}
	.st1{fill:#FFFFFF;}
</style>
<path class="st0" d="M308,0H10C4.5,0,0,4.5,0,10v50c0,5.5,4.5,10,10,10h14c4.5,0,8.9,1.6,12.2,4.6l3.5,3.1c1.1,1,2.8,1,4,0l3.4-3
	c3.5-3.1,7.9-4.8,12.6-4.8H308c5.5,0,10-4.5,10-10V10C318,4.5,313.5,0,308,0z"/>
<path class="st1" d="M92.9,41.1c-1.1,0-2.1-0.2-3-0.7c-0.9-0.5-1.6-1.2-2.1-2c-0.5-0.9-0.8-1.9-0.8-2.9c0-1.1,0.3-2.1,0.8-2.9
	c0.5-0.9,1.2-1.6,2.1-2c0.9-0.5,1.9-0.8,3-0.8c0.9,0,1.7,0.1,2.4,0.4c0.7,0.3,1.3,0.7,1.9,1.3l-1,1c-0.8-0.9-1.9-1.3-3.2-1.3
	c-0.8,0-1.6,0.2-2.3,0.6c-0.7,0.4-1.2,0.9-1.6,1.6c-0.4,0.7-0.6,1.4-0.6,2.2c0,0.8,0.2,1.5,0.6,2.2c0.4,0.7,0.9,1.2,1.6,1.5
	c0.7,0.4,1.4,0.6,2.3,0.6c1.2,0,2.3-0.4,3.2-1.3l1,1c-0.5,0.6-1.1,1-1.9,1.3C94.5,41,93.7,41.1,92.9,41.1z M104.9,36.6
	c1.1,0.3,1.6,1,1.6,2.1c0,0.7-0.3,1.3-0.8,1.7c-0.6,0.4-1.4,0.6-2.5,0.6h-4.1v-8.5h3.9c1,0,1.8,0.2,2.4,0.6c0.6,0.4,0.8,0.9,0.8,1.6
	c0,0.4-0.1,0.8-0.4,1.2C105.6,36.2,105.3,36.4,104.9,36.6z M100.6,36.2h2.3c0.6,0,1-0.1,1.3-0.3c0.3-0.2,0.5-0.5,0.5-0.9
	c0-0.8-0.6-1.2-1.8-1.2h-2.3V36.2z M103.1,39.8c0.6,0,1.1-0.1,1.4-0.3c0.3-0.2,0.5-0.5,0.5-0.9c0-0.4-0.2-0.8-0.4-1
	c-0.3-0.2-0.7-0.3-1.4-0.3h-2.6v2.5H103.1z M115.7,32.5V41h-1.4v-2.7h-2.5h-0.2l-1.9,2.7h-1.6l2.1-2.9c-0.6-0.2-1.1-0.5-1.5-0.9
	c-0.3-0.4-0.5-1-0.5-1.7c0-1,0.3-1.7,1-2.2c0.7-0.5,1.6-0.8,2.7-0.8H115.7z M109.8,35.5c0,0.6,0.2,1,0.5,1.3
	c0.4,0.3,0.9,0.4,1.6,0.4h2.4v-3.3H112C110.6,33.9,109.8,34.4,109.8,35.5z M123.2,36.6c0.6,0.1,1,0.4,1.3,0.7s0.5,0.7,0.5,1.2
	c0,0.5-0.2,0.9-0.5,1.3c-0.3,0.4-0.8,0.7-1.4,0.9c-0.6,0.2-1.3,0.3-2,0.3c-0.6,0-1.2-0.1-1.9-0.2c-0.6-0.2-1.1-0.4-1.6-0.7L118,39
	c0.4,0.3,0.9,0.5,1.4,0.6c0.5,0.1,1.1,0.2,1.6,0.2c0.7,0,1.3-0.1,1.7-0.4c0.4-0.3,0.7-0.6,0.7-1c0-0.4-0.2-0.7-0.5-0.9
	c-0.3-0.2-0.8-0.3-1.5-0.3h-1.6v-1.1h1.4c0.6,0,1-0.1,1.4-0.3c0.3-0.2,0.5-0.5,0.5-0.8c0-0.4-0.2-0.7-0.6-0.9
	c-0.4-0.2-0.9-0.3-1.6-0.3c-0.8,0-1.7,0.2-2.7,0.7l-0.4-1.2c1-0.5,2.1-0.8,3.2-0.8c0.7,0,1.3,0.1,1.8,0.3c0.5,0.2,1,0.5,1.3,0.8
	c0.3,0.4,0.5,0.8,0.5,1.2c0,0.4-0.1,0.8-0.4,1.1S123.6,36.4,123.2,36.6z M130.3,32.4c1.2,0,2.1,0.3,2.7,0.9c0.6,0.6,0.9,1.4,0.9,2.6
	V41h-1.5v-1.1c-0.3,0.4-0.6,0.7-1.1,0.9c-0.5,0.2-1,0.3-1.7,0.3c-0.9,0-1.7-0.2-2.3-0.7c-0.6-0.5-0.8-1.1-0.8-1.8s0.3-1.3,0.8-1.8
	c0.5-0.5,1.4-0.7,2.6-0.7h2.4v-0.3c0-0.7-0.2-1.2-0.6-1.5c-0.4-0.4-0.9-0.5-1.7-0.5c-0.5,0-1,0.1-1.5,0.3c-0.5,0.2-0.9,0.4-1.2,0.7
	l-0.6-1.2c0.4-0.4,1-0.6,1.6-0.8C129,32.5,129.6,32.4,130.3,32.4z M129.9,39.9c0.6,0,1.1-0.1,1.5-0.4c0.4-0.3,0.7-0.6,0.9-1.1v-1.2
	H130c-1.3,0-2,0.4-2,1.3c0,0.4,0.2,0.8,0.5,1C128.9,39.8,129.4,39.9,129.9,39.9z M143,33.9h-3.1V41h-1.5v-7.1h-3.1v-1.3h7.7V33.9z
	 M148.5,35.4c1.1,0,1.9,0.3,2.5,0.7c0.6,0.5,0.8,1.2,0.8,2c0,0.9-0.3,1.6-0.9,2.1c-0.6,0.5-1.5,0.7-2.6,0.7l-3.7,0v-8.5h1.5v2.9
	L148.5,35.4z M148.1,39.8c0.7,0,1.2-0.1,1.6-0.4c0.4-0.3,0.5-0.7,0.5-1.3c0-0.6-0.2-1-0.5-1.2c-0.3-0.3-0.9-0.4-1.6-0.4l-2,0v3.3
	L148.1,39.8z M157.5,41.1c-0.9,0-1.6-0.2-2.3-0.6c-0.7-0.4-1.2-0.9-1.6-1.5c-0.4-0.7-0.6-1.4-0.6-2.2c0-0.8,0.2-1.6,0.6-2.2
	c0.4-0.7,0.9-1.2,1.6-1.5c0.7-0.4,1.5-0.6,2.3-0.6c0.8,0,1.5,0.2,2,0.5c0.6,0.3,1.1,0.8,1.4,1.3l-1.2,0.8c-0.3-0.4-0.6-0.7-1-0.9
	c-0.4-0.2-0.8-0.3-1.3-0.3c-0.6,0-1.1,0.1-1.5,0.4c-0.4,0.2-0.8,0.6-1,1.1c-0.2,0.4-0.4,1-0.4,1.6c0,0.6,0.1,1.1,0.4,1.6
	c0.3,0.4,0.6,0.8,1,1c0.4,0.2,0.9,0.4,1.5,0.4c0.5,0,0.9-0.1,1.3-0.3c0.4-0.2,0.7-0.5,1-0.9l1.2,0.7c-0.3,0.6-0.8,1-1.4,1.4
	C158.9,40.9,158.2,41.1,157.5,41.1z M169.5,32.5V41h-1.4v-2.7h-2.5h-0.2l-1.9,2.7h-1.6l2.1-2.9c-0.6-0.2-1.1-0.5-1.5-0.9
	c-0.3-0.4-0.5-1-0.5-1.7c0-1,0.3-1.7,1-2.2c0.7-0.5,1.6-0.8,2.7-0.8H169.5z M163.6,35.5c0,0.6,0.2,1,0.5,1.3
	c0.4,0.3,0.9,0.4,1.6,0.4h2.4v-3.3h-2.3C164.3,33.9,163.6,34.4,163.6,35.5z M180.4,41.1c-0.9,0-1.6-0.2-2.3-0.6
	c-0.7-0.4-1.2-0.9-1.6-1.5c-0.4-0.7-0.6-1.4-0.6-2.2c0-0.8,0.2-1.6,0.6-2.2c0.4-0.7,0.9-1.2,1.6-1.5c0.7-0.4,1.5-0.6,2.3-0.6
	c0.8,0,1.4,0.2,2,0.5c0.6,0.3,1.1,0.8,1.4,1.3l-1.2,0.8c-0.3-0.4-0.6-0.7-1-0.9c-0.4-0.2-0.8-0.3-1.3-0.3c-0.6,0-1.1,0.1-1.5,0.4
	c-0.4,0.2-0.8,0.6-1,1.1c-0.2,0.4-0.4,1-0.4,1.6c0,0.6,0.1,1.1,0.4,1.6c0.3,0.4,0.6,0.8,1,1c0.4,0.2,0.9,0.4,1.5,0.4
	c0.5,0,0.9-0.1,1.3-0.3c0.4-0.2,0.7-0.5,1-0.9l1.2,0.7c-0.3,0.6-0.8,1-1.4,1.4C181.9,40.9,181.2,41.1,180.4,41.1z M190.2,32.5h1.5
	v3.6h4.8v-3.6h1.5V41h-1.5v-3.6h-4.8V41h-1.5V32.5z M204.1,32.4c1.2,0,2.1,0.3,2.7,0.9c0.6,0.6,0.9,1.4,0.9,2.6V41h-1.5v-1.1
	c-0.3,0.4-0.6,0.7-1.1,0.9c-0.5,0.2-1,0.3-1.7,0.3c-0.9,0-1.7-0.2-2.3-0.7c-0.6-0.5-0.8-1.1-0.8-1.8s0.3-1.3,0.8-1.8
	c0.5-0.5,1.4-0.7,2.6-0.7h2.4v-0.3c0-0.7-0.2-1.2-0.6-1.5c-0.4-0.4-1-0.5-1.7-0.5c-0.5,0-1,0.1-1.5,0.3c-0.5,0.2-0.9,0.4-1.2,0.7
	l-0.6-1.2c0.4-0.4,1-0.6,1.6-0.8C202.8,32.5,203.4,32.4,204.1,32.4z M203.8,39.9c0.6,0,1.1-0.1,1.5-0.4c0.4-0.3,0.7-0.6,0.9-1.1
	v-1.2h-2.4c-1.3,0-2,0.4-2,1.3c0,0.4,0.2,0.8,0.5,1C202.7,39.8,203.2,39.9,203.8,39.9z M220.3,32.5V41h-1.4v-6.2l-3.2,5.2H215
	l-3.1-5.2V41h-1.4v-8.5h1.6l3.3,5.7l3.4-5.7H220.3z M223.3,32.5h1.5v6.2l5.2-6.2h1.4V41h-1.5v-6.2l-5.2,6.2h-1.4V32.5z"/>
</svg>
