<svg id="Слой_1" data-name="Слой 1" xmlns="http://www.w3.org/2000/svg" viewBox="0 0 26.57 26.62">
  <path d="M543.8,569.92h-4a4,4,0,0,1-4-4v-4a4,4,0,0,1,4-4h4a4,4,0,0,1,4,4v4A4,4,0,0,1,543.8,569.92Zm-4-8v4h4v-4Z" transform="translate(-535.8 -557.92)"/>
  <path d="M558.38,569.92h-4a4,4,0,0,1-4-4v-4a4,4,0,0,1,4-4h4a4,4,0,0,1,4,4v4A4,4,0,0,1,558.38,569.92Zm-4-8v4h4v-4Z" transform="translate(-535.8 -557.92)"/>
  <path d="M543.8,584.53h-4a4,4,0,0,1-4-4v-4a4,4,0,0,1,4-4h4a4,4,0,0,1,4,4v4A4,4,0,0,1,543.8,584.53Zm-4-8v4h4v-4Z" transform="translate(-535.8 -557.92)"/>
  <path d="M558.38,584.53h-4a4,4,0,0,1-4-4v-4a4,4,0,0,1,4-4h4a4,4,0,0,1,4,4v4A4,4,0,0,1,558.38,584.53Zm-4-8v4h4v-4Z" transform="translate(-535.8 -557.92)"/>
</svg>
