<svg id="Слой_1" data-name="Слой 1" xmlns="http://www.w3.org/2000/svg" viewBox="0 0 25.84 24.94"><path d="M0,6.52A6.5,6.5,0,0,1,6.5,0H12v5.5A6.5,6.5,0,0,1,5.5,12H0Z" transform="translate(0 -0.02)"/><path d="M25.84,6.52A6.5,6.5,0,0,0,19.34,0h-6.5v5.5a6.5,6.5,0,0,0,6.5,6.5h6.5Z" transform="translate(0 -0.02)"/><path d="M0,13H5.5a6.5,6.5,0,0,1,6.5,6.5V25H6.5A6.5,6.5,0,0,1,0,18.46Z" transform="translate(0 -0.02)"/><path d="M25.84,13h-6.5a6.5,6.5,0,0,0-6.5,6.5V25h6.5a6.5,6.5,0,0,0,6.5-6.5Z" transform="translate(0 -0.02)"/></svg>