<?xml version="1.0" encoding="utf-8"?>
<!-- Generator: Adobe Illustrator 24.1.2, SVG Export Plug-In . SVG Version: 6.00 Build 0)  -->
<svg version="1.1" id="Слой_1" xmlns="http://www.w3.org/2000/svg" xmlns:xlink="http://www.w3.org/1999/xlink" x="0px" y="0px"
	 viewBox="0 0 368.3 26.6" style="enable-background:new 0 0 368.3 26.6;" xml:space="preserve">
<style type="text/css">
	.st0{fill-rule:evenodd;clip-rule:evenodd;}
</style>
<path class="st0" d="M20.6,0.4h-15C2.5,0.4,0,2.9,0,6v14.6c0,3.1,2.5,5.6,5.6,5.6l0,0h15c3.1,0,5.6-2.5,5.6-5.6l0,0V6
	C26.3,2.9,23.7,0.4,20.6,0.4z M20.5,20.6H5.8V6h14.8L20.5,20.6z"/>
<g>
	<path d="M58.4,26.3h-8c-0.9,0-1.7-0.3-2.4-0.9c-0.6-0.5-1-1.3-1-2.2V3.4c0-0.8,0.4-1.7,1-2.2c0.7-0.6,1.6-0.9,2.5-0.9H65v4.9H52.6
		v5.7h5.9c2.1-0.1,4.2,0.7,5.8,2.1c1.6,1.4,2.4,3.5,2.3,5.6c0.1,2.1-0.8,4.2-2.3,5.6C62.7,25.6,60.6,26.4,58.4,26.3z M52.5,15.7v5.8
		H58c0.8,0,1.6-0.3,2.2-0.9c0.6-0.5,0.9-1.3,0.8-2.1c0-0.8-0.3-1.5-0.9-2.1c-0.6-0.6-1.3-0.9-2.1-0.8h-5.5V15.7z"/>
	<path d="M89.7,21.5v4.7H75.3c-0.9,0-1.8-0.3-2.4-0.9c-0.6-0.5-1-1.3-1-2.2V3.4c0-0.8,0.4-1.6,1-2.2c0.7-0.6,1.5-0.9,2.4-0.9h14.4
		v4.8H77.3V11h11.6v4.8H77.3v5.8h12.4V21.5z"/>
	<path d="M99.1,26.3h-5.7l6.8-22.9c0.6-2,1.7-3.1,3.4-3.1h9.1c0.9,0,1.8,0.3,2.4,0.9c0.6,0.5,1,1.3,1,2.2v22.9h-5.7V5.4H105
		L99.1,26.3z"/>
	<path d="M126.2,26.3H120L130.2,2c0.3-0.6,0.7-1.1,1.3-1.4c0.6-0.4,1.3-0.6,2-0.6c1.4-0.1,2.7,0.7,3.3,2L147,26.3h-6.2l-2-5h-10.6
		L126.2,26.3z M133.5,7.4l-3.7,9h7.4L133.5,7.4z"/>
	<path d="M155.5,26.3h-6.6l6.8-10.3c-1.4-0.6-2.6-1.7-3.5-3c-0.8-1.3-1.2-2.9-1.2-4.4c-0.1-2.2,0.9-4.4,2.5-5.9
		c1.7-1.5,4-2.4,6.3-2.3h7.1c0.9,0,1.8,0.3,2.4,0.9c0.6,0.5,1,1.3,1,2.2v22.9h-5.5v-9.1h-3.6L155.5,26.3z M160.3,12.4h4.5V5.1h-4.5
		c-2-0.1-3.7,1.5-3.7,3.5c0,0.1,0,0.1,0,0.2c0,1,0.4,1.9,1.1,2.6C158.3,12.1,159.3,12.5,160.3,12.4z"/>
	<path d="M200.5,26.3h-5.8V5.4h-7.2V0.3h20.1v5.1h-7.2L200.5,26.3L200.5,26.3z"/>
	<path d="M229.8,21.5v4.7h-14.4c-0.9,0-1.8-0.3-2.4-0.9c-0.6-0.5-1-1.3-1-2.2V3.4c0-0.8,0.4-1.6,1-2.2c0.7-0.6,1.5-0.9,2.4-0.9h14.4
		v4.8h-12.3V11h11.6v4.8h-11.6v5.8h12.3V21.5z"/>
	<path d="M240.4,26.3h-6.7l8.3-12.9l-8.3-13h6.6l5.4,8.4l5.4-8.5h6.7l-8.4,13l8.4,12.9H251l-5.3-8.4L240.4,26.3z"/>
	<path d="M267.8,26.3h-5.7v-26h5.7v10.4h9.7V0.3h5.7v26h-5.7V15.8h-9.7V26.3z"/>
	<path d="M311.3,3.1v23.2h-5.4v-16l-10,14.8c-0.6,1-1.8,1.6-2.9,1.5c-0.9,0-1.8-0.3-2.4-0.9c-0.6-0.5-1-1.3-1-2.2V0.3h5.5v16
		l10-14.7c0.6-1,1.8-1.6,3-1.6c0.9,0,1.7,0.3,2.4,0.9C310.9,1.4,311.3,2.2,311.3,3.1z"/>
	<path d="M323.3,26.3h-5.8v-26h5.8v10.4h3.4l6.5-10.4h6.2l-7.8,12.8l8,13.2h-6.7l-6.3-10.4h-3.3L323.3,26.3z"/>
	<path d="M347.6,26.3h-6.2L351.6,2c0.3-0.6,0.7-1.1,1.3-1.4c0.6-0.4,1.3-0.6,2-0.6c1.4-0.1,2.7,0.7,3.3,2l10.2,24.3h-6.2l-2-5h-10.6
		L347.6,26.3z M354.9,7.4l-3.7,9h7.5L354.9,7.4z"/>
</g>
</svg>
