<svg id="Слой_1" data-name="Слой 1" xmlns="http://www.w3.org/2000/svg" viewBox="0 0 368.33 42.79">
  <defs>
    <style>
      .cls-1 {
        fill-rule: evenodd;
      }
    </style>
  </defs>
  <path class="cls-1" d="M20.64,1h-15A5.64,5.64,0,0,0,0,6.61v14.6a5.63,5.63,0,0,0,5.64,5.64h15a5.63,5.63,0,0,0,5.64-5.64V6.61A5.64,5.64,0,0,0,20.64,1Zm-.12,20.19H5.76V6.66H20.52Z" transform="translate(0 -0.62)"/>
  <g>
    <path d="M58.41,26.89h-8A3.49,3.49,0,0,1,48,26a2.82,2.82,0,0,1-1-2.18V4a2.84,2.84,0,0,1,1-2.2A3.57,3.57,0,0,1,50.45.93H65V5.78l-12.43,0v5.71h5.88a8.16,8.16,0,0,1,5.82,2.12,7.21,7.21,0,0,1,2.32,5.6,7.15,7.15,0,0,1-2.32,5.58A8.33,8.33,0,0,1,58.41,26.89ZM52.53,16.3v5.85H58a3,3,0,0,0,2.17-.85A2.77,2.77,0,0,0,61,19.24a2.82,2.82,0,0,0-.88-2.09A3,3,0,0,0,58,16.3Z" transform="translate(0 -0.62)"/>
    <path d="M89.67,22.15v4.74H75.27a3.49,3.49,0,0,1-2.42-.9,2.82,2.82,0,0,1-1-2.18V4a2.83,2.83,0,0,1,1-2.18,3.49,3.49,0,0,1,2.42-.9h14.4V5.67H77.35v5.85H88.91V16.3H77.35v5.85Z" transform="translate(0 -0.62)"/>
    <path d="M99.05,26.89H93.31L100.13,4c.59-2,1.73-3.08,3.39-3.08h9.1a3.47,3.47,0,0,1,2.42.9,2.83,2.83,0,0,1,1,2.18V26.89h-5.71V6H105Z" transform="translate(0 -0.62)"/>
    <path d="M126.16,26.89H120L130.17,2.63a3,3,0,0,1,1.26-1.44,3.8,3.8,0,0,1,2-.57,3.33,3.33,0,0,1,3.29,2l10.18,24.26h-6.2l-2-5.05H128.13Zm7.3-18.83-3.74,9h7.44Z" transform="translate(0 -0.62)"/>
    <path d="M155.51,26.89h-6.58l6.75-10.28a7.85,7.85,0,0,1-3.46-3A8.23,8.23,0,0,1,151,9.17a7.7,7.7,0,0,1,2.53-5.92A9,9,0,0,1,159.8.93h7.06a3.51,3.51,0,0,1,2.43.9,2.82,2.82,0,0,1,1,2.18V26.89h-5.5V17.82h-3.64Zm4.74-13.84h4.54V5.71h-4.54a3.64,3.64,0,0,0-3.74,3.7,3.48,3.48,0,0,0,1.06,2.6A3.67,3.67,0,0,0,160.25,13.05Z" transform="translate(0 -0.62)"/>
    <path d="M200.48,26.89h-5.75V6h-7.17V.93h20.08V6h-7.16Z" transform="translate(0 -0.62)"/>
    <path d="M229.83,22.15v4.74h-14.4A3.49,3.49,0,0,1,213,26a2.82,2.82,0,0,1-1-2.18V4a2.83,2.83,0,0,1,1-2.18,3.49,3.49,0,0,1,2.42-.9h14.4V5.67H217.51v5.85h11.56V16.3H217.51v5.85Z" transform="translate(0 -0.62)"/>
    <path d="M240.35,26.89h-6.68L242,14l-8.34-13h6.65l5.36,8.41L251.05.93h6.65l-8.35,13,8.35,12.94H251l-5.34-8.37Z" transform="translate(0 -0.62)"/>
    <path d="M267.8,26.89h-5.74V.93h5.74V11.35h9.73V.93h5.71v26h-5.71V16.47H267.8Z" transform="translate(0 -0.62)"/>
    <path d="M311.25,3.67V26.89h-5.44v-16l-10,14.78a3.19,3.19,0,0,1-2.94,1.53,3.53,3.53,0,0,1-2.44-.89,2.79,2.79,0,0,1-1-2.16V.93h5.47v16l10-14.74a3.27,3.27,0,0,1,3-1.56,3.43,3.43,0,0,1,2.39.88A2.84,2.84,0,0,1,311.25,3.67Z" transform="translate(0 -0.62)"/>
    <path d="M323.26,26.89h-5.75V.93h5.75V11.35h3.39L333.12.93h6.23L331.53,13.7l8,13.19h-6.68l-6.3-10.42h-3.32Z" transform="translate(0 -0.62)"/>
    <path d="M347.56,26.89h-6.2L351.57,2.63a3,3,0,0,1,1.27-1.44,3.74,3.74,0,0,1,2-.57,3.33,3.33,0,0,1,3.29,2l10.18,24.26h-6.2l-2-5.05H349.53Zm7.3-18.83-3.74,9h7.45Z" transform="translate(0 -0.62)"/>
  </g>
  <g>
    <path d="M48.41,43.25H47V35a.75.75,0,0,1,.28-.57A1,1,0,0,1,48,34.2a.9.9,0,0,1,.88.52l3.2,6.63,3.2-6.63a.92.92,0,0,1,.89-.52,1,1,0,0,1,.67.23.74.74,0,0,1,.27.57v8.25H55.72V37l-2.86,5.88a.83.83,0,0,1-.8.49.84.84,0,0,1-.8-.49L48.41,37Z" transform="translate(0 -0.62)"/>
    <path d="M60.11,43.25H58.53l3.63-8.53a.83.83,0,0,1,.34-.38A1,1,0,0,1,63,34.2a.87.87,0,0,1,.86.52l3.62,8.53H65.91l-.78-1.91H60.88ZM63,36.06l-1.72,4h3.43Z" transform="translate(0 -0.62)"/>
    <path d="M70.39,43.25H68.93V35.11a.76.76,0,0,1,.26-.57.93.93,0,0,1,.64-.24h4.4v1.3H70.39Z" transform="translate(0 -0.62)"/>
    <path d="M76.52,43.25H75l3.63-8.53a.76.76,0,0,1,.33-.38,1,1,0,0,1,.53-.14.88.88,0,0,1,.86.52l3.61,8.53H82.33l-.78-1.91H77.3Zm2.92-7.19-1.72,4h3.42Z" transform="translate(0 -0.62)"/>
    <path d="M88.53,43.25H85V42h3.33a1.35,1.35,0,0,0,1-.39,1.23,1.23,0,0,0,.4-.93,1.25,1.25,0,0,0-.4-.94,1.35,1.35,0,0,0-1-.39H86V38.16h2.23a1.37,1.37,0,0,0,1-.38,1.29,1.29,0,0,0,.4-.94,1.25,1.25,0,0,0-.4-.94,1.34,1.34,0,0,0-1-.39h-2.9V34.3h3.06a2.75,2.75,0,0,1,1.92.7,2.29,2.29,0,0,1,.78,1.77,2.26,2.26,0,0,1-.31,1.13,2.31,2.31,0,0,1-.84.83,2.3,2.3,0,0,1,.94.86,2.19,2.19,0,0,1,.35,1.2,2.29,2.29,0,0,1-.78,1.77A2.73,2.73,0,0,1,88.53,43.25Z" transform="translate(0 -0.62)"/>
    <path d="M100.49,35v8.25H99.1V36.78L94.81,43a.85.85,0,0,1-.76.4.88.88,0,0,1-.63-.24.71.71,0,0,1-.27-.56V34.3h1.4v6.47l4.29-6.16a.86.86,0,0,1,.77-.41.92.92,0,0,1,.63.23A.75.75,0,0,1,100.49,35Z" transform="translate(0 -0.62)"/>
    <path d="M104.24,43.25h-1.45v-9h1.45v3.82h4.21V34.3h1.45v9h-1.45V39.43h-4.21Z" transform="translate(0 -0.62)"/>
    <path d="M117.92,43.25h-1.38V35a.74.74,0,0,1,.27-.57,1.05,1.05,0,0,1,.68-.23.92.92,0,0,1,.89.52l3.2,6.63,3.2-6.63a.9.9,0,0,1,.88-.52,1,1,0,0,1,.67.23.74.74,0,0,1,.27.57v8.25h-1.37V37l-2.85,5.88a.84.84,0,0,1-.8.49.83.83,0,0,1-.8-.49L117.92,37Z" transform="translate(0 -0.62)"/>
    <path d="M129.86,35.5a4.66,4.66,0,1,1-1.35,3.27A4.49,4.49,0,0,1,129.86,35.5Zm3.3,0a3,3,0,0,0-2.26,1,3.5,3.5,0,0,0,0,4.71,3,3,0,0,0,2.26,1,3,3,0,0,0,2.24-1,3.5,3.5,0,0,0,0-4.71A3,3,0,0,0,133.16,35.46Z" transform="translate(0 -0.62)"/>
    <path d="M143.51,43.25h-2.93A.88.88,0,0,1,140,43a.73.73,0,0,1-.26-.57V35.11a.73.73,0,0,1,.26-.57.88.88,0,0,1,.63-.24h5v1.24H141.1v2.61h2.41a2.76,2.76,0,0,1,1.92.71,2.61,2.61,0,0,1,0,3.68A2.75,2.75,0,0,1,143.51,43.25Zm-2.41-3.87V42h2.29a1.33,1.33,0,0,0,1-.38,1.26,1.26,0,0,0,.39-.94,1.28,1.28,0,0,0-.39-.94,1.34,1.34,0,0,0-1-.39Z" transform="translate(0 -0.62)"/>
    <path d="M155.47,35v8.25h-1.4V36.78L149.79,43a.87.87,0,0,1-.77.4.9.9,0,0,1-.63-.24.7.7,0,0,1-.26-.56V34.3h1.39v6.47l4.29-6.16a.86.86,0,0,1,.78-.41.91.91,0,0,1,.62.23A.76.76,0,0,1,155.47,35Z" transform="translate(0 -0.62)"/>
    <path d="M158.44,43.25H157l2.43-8.14c.16-.54.47-.81.9-.81h3.33a.93.93,0,0,1,.64.24.76.76,0,0,1,.26.57v8.14h-1.44V35.6h-2.43Z" transform="translate(0 -0.62)"/>
    <path d="M170.65,43.25h-2.92a.88.88,0,0,1-.63-.24.74.74,0,0,1-.27-.57V34.3h1.44v3.86h2.38a2.77,2.77,0,0,1,1.93.71,2.61,2.61,0,0,1,0,3.68A2.76,2.76,0,0,1,170.65,43.25Zm-2.38-3.87V42h2.26a1.37,1.37,0,0,0,1-.38,1.26,1.26,0,0,0,.39-.94,1.28,1.28,0,0,0-.39-.94,1.38,1.38,0,0,0-1-.39Z" transform="translate(0 -0.62)"/>
    <path d="M176.69,43.25h-1.45v-9h1.45v3.82h4.21V34.3h1.45v9H180.9V39.43h-4.21Z" transform="translate(0 -0.62)"/>
    <path d="M188.47,43.25h-2.93a.88.88,0,0,1-.63-.24.73.73,0,0,1-.26-.57V34.3h1.43v3.86h2.39a2.76,2.76,0,0,1,1.92.71,2.61,2.61,0,0,1,0,3.68A2.75,2.75,0,0,1,188.47,43.25Zm-2.39-3.87V42h2.27a1.37,1.37,0,0,0,1-.38,1.26,1.26,0,0,0,.39-.94,1.28,1.28,0,0,0-.39-.94,1.37,1.37,0,0,0-1-.39Zm7.79,3.87h-1.45v-9h1.45Z" transform="translate(0 -0.62)"/>
    <path d="M197.13,43.25h-1.69l3-4.48-3-4.47h1.69l2.25,3.32,2.24-3.32h1.7l-3,4.47,3,4.48h-1.7l-2.24-3.31Z" transform="translate(0 -0.62)"/>
    <path d="M209.7,43.41h-.14V42.09h.11A2.76,2.76,0,0,0,212,40.66l-3.64-6.36H210l2.83,5,2.5-5H217l-3,5.87a11.78,11.78,0,0,1-.76,1.32,6.35,6.35,0,0,1-.85,1A3.59,3.59,0,0,1,209.7,43.41Z" transform="translate(0 -0.62)"/>
    <path d="M224.08,42v1.3h-1.51A4.81,4.81,0,0,1,219.15,42a4.39,4.39,0,0,1,0-6.42,5,5,0,0,1,3.41-1.25h1.51v1.3h-1.51a3.3,3.3,0,0,0-2.39.91,3,3,0,0,0-.94,2.26,3,3,0,0,0,1,2.28,3.28,3.28,0,0,0,2.37.9Z" transform="translate(0 -0.62)"/>
    <path d="M229.44,43.25H228V35.6h-2.62V34.3h6.71v1.3h-2.62Z" transform="translate(0 -0.62)"/>
    <path d="M235.08,43.25h-1.43V35.11a.76.76,0,0,1,.26-.57.93.93,0,0,1,.64-.24h2.22a3.1,3.1,0,0,1,2.24.88,3,3,0,0,1,0,4.3,3.1,3.1,0,0,1-2.24.88h-1.69Zm0-7.72v3.6h1.63a1.77,1.77,0,0,0,1.3-.52,1.84,1.84,0,0,0,0-2.56,1.77,1.77,0,0,0-1.3-.52Z" transform="translate(0 -0.62)"/>
    <path d="M242.85,35.5a4.68,4.68,0,1,1-1.34,3.27A4.49,4.49,0,0,1,242.85,35.5Zm3.3,0a3,3,0,0,0-2.26,1,3.53,3.53,0,0,0,0,4.71,3,3,0,0,0,2.26,1,3,3,0,0,0,2.24-1,3.5,3.5,0,0,0,0-4.71A3,3,0,0,0,246.15,35.46Z" transform="translate(0 -0.62)"/>
    <path d="M260,35v8.25h-1.4V36.78L254.34,43a.86.86,0,0,1-.77.4.92.92,0,0,1-.63-.24.73.73,0,0,1-.26-.56V34.3h1.4v6.47l4.28-6.16a.87.87,0,0,1,.78-.41.91.91,0,0,1,.62.23A.73.73,0,0,1,260,35Zm-5.6-3.26h.87a1.28,1.28,0,0,0,.37.69,1,1,0,0,0,.7.26c.54,0,.89-.32,1.05-.95h.86a2.3,2.3,0,0,1-.65,1.33,1.78,1.78,0,0,1-1.26.49,1.81,1.81,0,0,1-1.29-.49A2.24,2.24,0,0,1,254.42,31.74Z" transform="translate(0 -0.62)"/>
    <path d="M268.23,42v1.3h-1.5A4.85,4.85,0,0,1,263.3,42a4.19,4.19,0,0,1-1.38-3.2,4.11,4.11,0,0,1,1.4-3.22,4.93,4.93,0,0,1,3.41-1.25h1.5v1.3h-1.5a3.3,3.3,0,0,0-2.39.91,3.2,3.2,0,0,0,0,4.54,3.32,3.32,0,0,0,2.38.9Z" transform="translate(0 -0.62)"/>
    <path d="M273.59,43.25h-1.46V35.6h-2.62V34.3h6.71v1.3h-2.63Z" transform="translate(0 -0.62)"/>
    <path d="M281.63,43.25H278.7a.92.92,0,0,1-.63-.24.76.76,0,0,1-.26-.57V35.11a.76.76,0,0,1,.26-.57.92.92,0,0,1,.63-.24h2.63a2.75,2.75,0,0,1,1.92.7,2.29,2.29,0,0,1,.78,1.77,2.11,2.11,0,0,1-.31,1.1,2.23,2.23,0,0,1-.81.83,2.76,2.76,0,0,1,1,.87,2.09,2.09,0,0,1,.37,1.22,2.28,2.28,0,0,1-.77,1.77A2.75,2.75,0,0,1,281.63,43.25Zm-2.41-7.74v2.65h2a1.37,1.37,0,0,0,1-.38,1.28,1.28,0,0,0,0-1.87,1.35,1.35,0,0,0-1-.4Zm0,3.87V42h2.29a1.33,1.33,0,0,0,1-.38,1.26,1.26,0,0,0,.39-.94,1.28,1.28,0,0,0-.39-.94,1.34,1.34,0,0,0-1-.39Z" transform="translate(0 -0.62)"/>
  </g>
</svg>
