<svg id="Слой_1" data-name="Слой 1" xmlns="http://www.w3.org/2000/svg" viewBox="0 0 20.02 6">
  <path d="M498.28,565a3,3,0,1,1,3-3A3,3,0,0,1,498.28,565Zm0-4a1,1,0,1,0,1,1A1,1,0,0,0,498.28,561Z" transform="translate(-495.28 -559.02)"/>
  <path d="M505.28,565a3,3,0,1,1,3-3A3,3,0,0,1,505.28,565Zm0-4a1,1,0,1,0,1,1A1,1,0,0,0,505.28,561Z" transform="translate(-495.28 -559.02)"/>
  <path d="M512.3,565a3,3,0,1,1,3-3A3,3,0,0,1,512.3,565Zm0-4a1,1,0,1,0,1,1A1,1,0,0,0,512.3,561Z" transform="translate(-495.28 -559.02)"/>
</svg>
