<svg width="90" height="79" viewBox="0 0 90 79" fill="none" xmlns="http://www.w3.org/2000/svg">
<rect width="90" height="70" rx="20" fill="black"/>
<path d="M33.7388 77.7444L37.1128 74.7627C40.5855 71.6938 45.0601 70 49.6946 70H14C18.5119 70 22.8683 71.6491 26.2492 74.6369L29.7656 77.7444C30.9002 78.7471 32.6042 78.7471 33.7388 77.7444Z" fill="black"/>
<path d="M43.328 38.432C43.328 37.568 43.52 36.856 43.904 36.296C44.304 35.72 44.88 35.096 45.632 34.424C46.208 33.912 46.632 33.472 46.904 33.104C47.192 32.72 47.336 32.288 47.336 31.808C47.336 31.136 47.064 30.592 46.52 30.176C45.976 29.76 45.248 29.552 44.336 29.552C42.608 29.552 41.304 30.168 40.424 31.4L38.096 29.888C38.784 28.944 39.672 28.224 40.76 27.728C41.848 27.216 43.128 26.96 44.6 26.96C46.392 26.96 47.816 27.352 48.872 28.136C49.944 28.904 50.48 29.968 50.48 31.328C50.48 31.984 50.368 32.56 50.144 33.056C49.936 33.552 49.68 33.976 49.376 34.328C49.072 34.664 48.672 35.056 48.176 35.504C47.568 36.048 47.112 36.528 46.808 36.944C46.52 37.36 46.376 37.856 46.376 38.432H43.328ZM44.864 44.168C44.304 44.168 43.84 43.992 43.472 43.64C43.12 43.272 42.944 42.824 42.944 42.296C42.944 41.768 43.12 41.328 43.472 40.976C43.84 40.624 44.304 40.448 44.864 40.448C45.408 40.448 45.856 40.624 46.208 40.976C46.576 41.328 46.76 41.768 46.76 42.296C46.76 42.824 46.576 43.272 46.208 43.64C45.856 43.992 45.408 44.168 44.864 44.168Z" fill="white"/>
</svg>
