<svg id="Слой_1" data-name="Слой 1" xmlns="http://www.w3.org/2000/svg" viewBox="0 0 24 24">
  <defs>
    <style>
      .cls-1 {
        fill: #f0f2f4;
      }

      .cls-2 {
        fill: #f6f6f6;
      }

      .cls-3 {
        fill: #acb8ca;
      }

      .cls-4 {
        fill: #909eb7;
      }

      .cls-5 {
        fill: #9a9a9a;
      }
    </style>
  </defs>
  <path class="cls-1" d="M12,0h0A12,12,0,0,1,24,12h0A12,12,0,0,1,12,24h0A12,12,0,0,1,0,12H0A12,12,0,0,1,12,0Z"/>
  <path class="cls-2" d="M12,0h0A12,12,0,0,1,24,12h0A12,12,0,0,1,12,24h0A12,12,0,0,1,0,12H0A12,12,0,0,1,12,0Z"/>
  <path class="cls-3" d="M11.29,13.53a2.16,2.16,0,0,1,.32-1.21,6.85,6.85,0,0,1,1-1.05,5.07,5.07,0,0,0,.67-.7,1,1,0,0,0,.23-.66,1,1,0,0,0-.42-.81A1.81,1.81,0,0,0,12,8.79a2.43,2.43,0,0,0-2,1l-1.69-1A4,4,0,0,1,9.82,7.45,5.38,5.38,0,0,1,12.2,7a4.36,4.36,0,0,1,2.58.69,2.19,2.19,0,0,1,1,1.9,2.46,2.46,0,0,1-.2,1,2.51,2.51,0,0,1-.46.74c-.18.2-.41.42-.7.69a5.15,5.15,0,0,0-.75.78,1.21,1.21,0,0,0-.24.76ZM12.36,17a1.37,1.37,0,0,1-1-.36,1.27,1.27,0,0,1-.38-.91,1.18,1.18,0,0,1,.38-.89,1.35,1.35,0,0,1,1-.36,1.33,1.33,0,0,1,1,.36,1.14,1.14,0,0,1,.38.89,1.24,1.24,0,0,1-.39.91A1.32,1.32,0,0,1,12.36,17Z"/>
  <path class="cls-4" d="M11.29,13.53a2.16,2.16,0,0,1,.32-1.21,6.85,6.85,0,0,1,1-1.05,5.07,5.07,0,0,0,.67-.7,1,1,0,0,0,.23-.66,1,1,0,0,0-.42-.81A1.81,1.81,0,0,0,12,8.79a2.43,2.43,0,0,0-2,1l-1.69-1A4,4,0,0,1,9.82,7.45,5.38,5.38,0,0,1,12.2,7a4.36,4.36,0,0,1,2.58.69,2.19,2.19,0,0,1,1,1.9,2.46,2.46,0,0,1-.2,1,2.51,2.51,0,0,1-.46.74c-.18.2-.41.42-.7.69a5.15,5.15,0,0,0-.75.78,1.21,1.21,0,0,0-.24.76ZM12.36,17a1.37,1.37,0,0,1-1-.36,1.27,1.27,0,0,1-.38-.91,1.18,1.18,0,0,1,.38-.89,1.35,1.35,0,0,1,1-.36,1.33,1.33,0,0,1,1,.36,1.14,1.14,0,0,1,.38.89,1.24,1.24,0,0,1-.39.91A1.32,1.32,0,0,1,12.36,17Z"/>
  <path class="cls-5" d="M11.29,13.53a2.16,2.16,0,0,1,.32-1.21,6.85,6.85,0,0,1,1-1.05,5.07,5.07,0,0,0,.67-.7,1,1,0,0,0,.23-.66,1,1,0,0,0-.42-.81A1.81,1.81,0,0,0,12,8.79a2.43,2.43,0,0,0-2,1l-1.69-1A4,4,0,0,1,9.82,7.45,5.38,5.38,0,0,1,12.2,7a4.36,4.36,0,0,1,2.58.69,2.19,2.19,0,0,1,1,1.9,2.46,2.46,0,0,1-.2,1,2.51,2.51,0,0,1-.46.74c-.18.2-.41.42-.7.69a5.15,5.15,0,0,0-.75.78,1.21,1.21,0,0,0-.24.76ZM12.36,17a1.37,1.37,0,0,1-1-.36,1.27,1.27,0,0,1-.38-.91,1.18,1.18,0,0,1,.38-.89,1.35,1.35,0,0,1,1-.36,1.33,1.33,0,0,1,1,.36,1.14,1.14,0,0,1,.38.89,1.24,1.24,0,0,1-.39.91A1.32,1.32,0,0,1,12.36,17Z"/>
</svg>
