<svg width="25" height="25" viewBox="0 0 25 25" fill="none" xmlns="http://www.w3.org/2000/svg">
<path d="M22.0273 19.2683C20.9064 20.2602 19.282 20.9715 17.154 21.4024C15.026 21.8333 12.833 21.9593 10.575 21.7805L6.28655 25V20.9756C4.87329 20.5366 3.76868 19.9675 2.97271 19.2683C2.03054 18.439 1.29955 17.248 0.779727 15.6951C0.259909 14.1423 0 12.5569 0 10.939C0 9.32114 0.259909 7.73577 0.779727 6.18293C1.29955 4.63008 2.0346 3.43496 2.98489 2.59756C3.93519 1.76016 5.29565 1.11789 7.06628 0.670732C8.83691 0.223577 10.6481 0 12.5 0C14.3519 0 16.1631 0.223577 17.9337 0.670732C19.7044 1.11789 21.0648 1.76016 22.0151 2.59756C22.9654 3.43496 23.7005 4.63008 24.2203 6.18293C24.7401 7.73577 25 9.32114 25 10.939C25 12.5569 24.7401 14.1423 24.2203 15.6951C23.7005 17.248 22.9695 18.439 22.0273 19.2683ZM15.5702 13.2927L17.154 13.561C17.024 11.6098 16.2727 9.94309 14.9001 8.56098C13.5275 7.17886 11.8665 6.42276 9.91715 6.29268L10.1852 7.87805C11.5822 8.05691 12.7843 8.65041 13.7914 9.65854C14.7986 10.6667 15.3915 11.878 15.5702 13.2927ZM10.4532 9.51219L10.7456 11.2683C11.3954 11.5935 11.8746 12.0732 12.1832 12.7073L13.9376 13C13.7427 12.1382 13.3285 11.3943 12.6949 10.7683C12.0614 10.1423 11.3142 9.72358 10.4532 9.51219ZM7.846 10.9512V9.39024C7.846 9.11382 7.74448 8.8374 7.54142 8.56098C7.33837 8.28455 7.12313 8.08537 6.89571 7.96341C6.66829 7.84146 6.49773 7.82927 6.38402 7.92683L5.26316 9.07317C4.62963 9.70732 4.53622 10.6951 4.98294 12.0366C5.42966 13.378 6.28249 14.6789 7.54142 15.939C8.80036 17.1992 10.0999 18.0528 11.4401 18.5C12.7802 18.9472 13.7589 18.8537 14.3762 18.2195L15.5214 17.0732C15.6352 16.9756 15.6311 16.8089 15.5093 16.5732C15.3874 16.3374 15.1884 16.122 14.9123 15.9268C14.6361 15.7317 14.36 15.6341 14.0838 15.6341H12.5244L11.6228 16.4146C10.9081 16.2195 10.0187 15.5894 8.95468 14.5244C7.89068 13.4593 7.26121 12.561 7.06628 11.8293L7.846 10.9512ZM9.40546 3.14634L9.64912 4.73171C11.2736 4.76423 12.7762 5.19106 14.1569 6.0122C15.5377 6.83333 16.6342 7.93089 17.4464 9.30488C18.2586 10.6789 18.6891 12.1789 18.7378 13.8049L20.3216 14.0732C20.3216 12.5935 20.0333 11.1789 19.4566 9.82927C18.88 8.47967 18.1043 7.31707 17.1296 6.34146C16.155 5.36585 14.9935 4.58943 13.6452 4.0122C12.2969 3.43496 10.8837 3.14634 9.40546 3.14634Z" fill="#7B40AD"/>
</svg>
