<?xml version="1.0" encoding="utf-8"?>
<!-- Generator: Adobe Illustrator 24.1.2, SVG Export Plug-In . SVG Version: 6.00 Build 0)  -->
<svg version="1.1" id="Слой_1" xmlns="http://www.w3.org/2000/svg" xmlns:xlink="http://www.w3.org/1999/xlink" x="0px" y="0px"
	 viewBox="0 0 22.6 22.6" style="enable-background:new 0 0 22.6 22.6;" xml:space="preserve">
<style type="text/css">
	.st0{fill:url(#SVGID_1_);}
	.st1{fill:url(#SVGID_2_);}
</style>
<g>
	
		<linearGradient id="SVGID_1_" gradientUnits="userSpaceOnUse" x1="11.35" y1="1.4" x2="11.35" y2="24" gradientTransform="matrix(1 0 0 -1 0 24)">
		<stop  offset="0" style="stop-color:#20B038"/>
		<stop  offset="1" style="stop-color:#60D66A"/>
	</linearGradient>
	<path class="st0" d="M19.3,3.3C17.2,1.2,14.4,0,11.4,0C5.2,0,0.1,5,0.1,11.2c0,2,0.5,3.9,1.5,5.6L0,22.6L6,21
		c1.6,0.9,3.5,1.4,5.4,1.4c6.2,0,11.2-5,11.3-11.2C22.6,8.2,21.4,5.4,19.3,3.3z M17.1,15.4c-0.4,0.7-1.2,1.2-2,1.4
		c-0.5,0-1,0.3-3.5-0.7c-2-1-3.8-2.5-5-4.4c-0.7-0.9-1.1-1.9-1.2-3c0-0.9,0.3-1.8,1-2.4C6.6,6,6.9,5.9,7.2,5.9h0.6
		c0.2,0,0.4,0,0.7,0.5c0.3,0.6,0.8,2,0.9,2.1c0.1,0.2,0.1,0.3,0,0.5C9.3,9.2,9.2,9.3,9.1,9.5C9,9.6,8.8,9.8,8.7,10s-0.3,0.3-0.1,0.6
		c0.9,1.6,2.3,2.8,4,3.5c0.3,0.1,0.5,0.1,0.6-0.1c0.2-0.2,0.7-0.8,0.9-1.1s0.4-0.3,0.7-0.2c0.3,0.2,1.7,0.9,2,1
		c0.2,0.1,0.4,0.2,0.6,0.3C17.4,14.5,17.3,14.9,17.1,15.4z"/>
</g>
</svg>
