<svg id="Слой_1" data-name="Слой 1" xmlns="http://www.w3.org/2000/svg" viewBox="0 0 317.63 34.12">
  <defs>
    <style>
      .cls-1, .cls-2 {
        fill: #fff;
      }

      .cls-1 {
        fill-rule: evenodd;
      }
    </style>
  </defs>
  <path class="cls-1" d="M278.76,551.76h-15a5.65,5.65,0,0,0-5.64,5.61V572a5.64,5.64,0,0,0,5.62,5.64h15A5.62,5.62,0,0,0,284.4,572V557.37A5.63,5.63,0,0,0,278.76,551.76ZM278.64,572H263.88V557.42h14.76Z" transform="translate(-258.12 -544)"/>
  <g>
    <path class="cls-2" d="M316.7,577.81h-8a3.51,3.51,0,0,1-2.43-.9,2.84,2.84,0,0,1-1-2.19V554.89a2.83,2.83,0,0,1,1-2.2,3.53,3.53,0,0,1,2.45-.89h14.52v4.86l-12.44,0v5.72h5.89a8.2,8.2,0,0,1,5.83,2.12,7.25,7.25,0,0,1,2.32,5.61,7.16,7.16,0,0,1-2.32,5.59A8.38,8.38,0,0,1,316.7,577.81Zm-5.89-10.61v5.86h5.44a3.05,3.05,0,0,0,2.17-.85,2.9,2.9,0,0,0,0-4.16,3,3,0,0,0-2.17-.85Z" transform="translate(-258.12 -544)"/>
    <path class="cls-2" d="M345.93,573.06v4.75H331.51a3.51,3.51,0,0,1-2.43-.9,2.84,2.84,0,0,1-1-2.19V554.89a2.84,2.84,0,0,1,1-2.19,3.51,3.51,0,0,1,2.43-.9h14.42v4.75H333.59v5.86h11.58v4.79H333.59v5.86Z" transform="translate(-258.12 -544)"/>
    <path class="cls-2" d="M353.25,577.81h-5.76l6.83-22.92c.6-2.06,1.74-3.09,3.4-3.09h9.12a3.51,3.51,0,0,1,2.43.9,2.83,2.83,0,0,1,1,2.19v22.92h-5.72V556.9h-5.34Z" transform="translate(-258.12 -544)"/>
    <path class="cls-2" d="M385.88,577.81h-8a3.51,3.51,0,0,1-2.43-.9,2.83,2.83,0,0,1-1-2.19V551.8h5.61v10.61h5.8a8.16,8.16,0,0,1,5.82,2.12,7.21,7.21,0,0,1,2.32,5.61,7.13,7.13,0,0,1-2.32,5.59A8.35,8.35,0,0,1,385.88,577.81Zm-5.8-10.61v5.86h5.34a3,3,0,0,0,2.17-.85,2.88,2.88,0,0,0,0-4.16,3,3,0,0,0-2.17-.85Zm23,10.61h-5.76v-26h5.76Z" transform="translate(-258.12 -544)"/>
    <path class="cls-2" d="M429,554.54v23.27h-5.45v-16l-10,14.8a3.21,3.21,0,0,1-2.95,1.53,3.54,3.54,0,0,1-2.45-.88,2.8,2.8,0,0,1-1-2.17V551.8h5.47v16l10-14.77a3.27,3.27,0,0,1,3-1.56,3.39,3.39,0,0,1,2.39.88A2.83,2.83,0,0,1,429,554.54ZM412.09,544h3.29a3,3,0,0,0,.94,1.73,2.54,2.54,0,0,0,1.77.66,2.66,2.66,0,0,0,2.74-2.39h3.22a6.84,6.84,0,0,1-1.92,4.14,5.54,5.54,0,0,1-4,1.55,5.6,5.6,0,0,1-4.06-1.55A6.8,6.8,0,0,1,412.09,544Z" transform="translate(-258.12 -544)"/>
    <path class="cls-2" d="M461.88,572.75v5.06H457A14.28,14.28,0,0,1,447,574.1a12.18,12.18,0,0,1-4-9.3,12,12,0,0,1,4.06-9.36A14.36,14.36,0,0,1,457,551.8h4.92v5.06H457a8.13,8.13,0,0,0-5.83,2.26,8.17,8.17,0,0,0,0,11.41,8.1,8.1,0,0,0,5.83,2.22Z" transform="translate(-258.12 -544)"/>
    <path class="cls-2" d="M483.07,573.06v4.75H468.64a3.49,3.49,0,0,1-2.42-.9,2.8,2.8,0,0,1-1-2.19V554.89a2.8,2.8,0,0,1,1-2.19,3.49,3.49,0,0,1,2.42-.9h14.43v4.75H470.72v5.86H482.3v4.79H470.72v5.86Z" transform="translate(-258.12 -544)"/>
    <path class="cls-2" d="M492.33,577.81h-5.62V554.89a2.83,2.83,0,0,1,1-2.19,3.51,3.51,0,0,1,2.43-.9h6.21a9.29,9.29,0,0,1,6.69,2.64,8.83,8.83,0,0,1,0,12.79,9.29,9.29,0,0,1-6.69,2.64h-4Zm0-21.22v8.49h3.77a4,4,0,0,0,3-1.23,4.1,4.1,0,0,0,1.21-3,4.26,4.26,0,0,0-1.21-3,3.94,3.94,0,0,0-3-1.24Z" transform="translate(-258.12 -544)"/>
    <path class="cls-2" d="M520.52,577.81h-8a3.51,3.51,0,0,1-2.43-.9,2.83,2.83,0,0,1-1-2.19V554.89a2.83,2.83,0,0,1,1-2.2,3.51,3.51,0,0,1,2.44-.89h7.18a8.39,8.39,0,0,1,5.79,2.08,6.71,6.71,0,0,1,2.36,5.31,6.22,6.22,0,0,1-.77,3,7.1,7.1,0,0,1-2,2.41,6.6,6.6,0,0,1,3.6,5.9,6.68,6.68,0,0,1-2.35,5.3A8.53,8.53,0,0,1,520.52,577.81Zm-5.9-21.26v5.86h4.65a3,3,0,0,0,2.18-.83,2.75,2.75,0,0,0,.87-2.08,2.83,2.83,0,0,0-.87-2.1,3,3,0,0,0-2.18-.85Zm0,10.65v5.86h5.44a3,3,0,0,0,2.17-.85,2.88,2.88,0,0,0,0-4.16,3,3,0,0,0-2.17-.85Z" transform="translate(-258.12 -544)"/>
    <path class="cls-2" d="M553.7,554.54v23.27h-5.44v-16l-10,14.8a3.2,3.2,0,0,1-2.95,1.53,3.52,3.52,0,0,1-2.44-.88,2.81,2.81,0,0,1-1-2.17V551.8h5.48v16l10-14.77a3.28,3.28,0,0,1,3-1.56,3.43,3.43,0,0,1,2.39.88A2.82,2.82,0,0,1,553.7,554.54Z" transform="translate(-258.12 -544)"/>
    <path class="cls-2" d="M575.75,572.75v5.06h-4.92a14.28,14.28,0,0,1-10-3.71,12.21,12.21,0,0,1-4-9.3,12,12,0,0,1,4.06-9.36,14.36,14.36,0,0,1,9.92-3.64h4.92v5.06h-4.92a8.15,8.15,0,0,0-5.83,2.26,8.17,8.17,0,0,0,0,11.41,8.1,8.1,0,0,0,5.83,2.22Z" transform="translate(-258.12 -544)"/>
  </g>
</svg>
